<?xml version="1.0" encoding="utf-8"?>
<svg version="1.1" id="mm-logo"
  xmlns="http://www.w3.org/2000/svg"
  xmlns:xlink="http://www.w3.org/1999/xlink" x="0" y="0" viewBox="0 0 200 250" xml:space="preserve">
  <g id="medal">
    <path class="medal-body" d="M100,63.89c49.07,0,89,39.28,89,87.55S149.07,239,100,239s-89-39.28-89-87.55S50.93,63.89,100,63.89
      M100,52.89c-55.23,0-100,44.12-100,98.55S44.77,250,100,250s100-44.12,100-98.55S155.23,52.89,100,52.89L100,52.89z"/>
    <g>
      <path class="medal-band-left" d="M100,40.42c3.11,0,6.19,0.23,9.26,0.52L74.16,0H0l35.52,62.59C54.24,48.88,76.71,40.42,100,40.42z"/>
    </g>
    <g>
      <path class="medal-band-right" d="M161.58,60.41L200,0h-75l-18.14,21.15l19.74,23.02C139.04,47.55,150.9,53.06,161.58,60.41z"/>
    </g>
    <g>
      <path class="medal-m" d="M124.21,101.54h26.17v100.01h-23.39v-69.01c0,0-26.03,30.41-27.05,32.6l-26.61-32.75v69.16H49.79V101.54h24.27
      l25.88,32.02L124.21,101.54z"/>
    </g>
  </g>
</svg>
